<svg width="73" height="55" viewBox="0 0 73 55" fill="none" xmlns="http://www.w3.org/2000/svg">
<path d="M70.7188 45.8333H9.125V2.29167C9.125 1.02552 8.10414 0 6.84375 0H2.28125C1.02086 0 0 1.02552 0 2.29167V50.4167C0 52.9475 2.04314 55 4.5625 55H70.7188C71.9791 55 73 53.9745 73 52.7083V48.125C73 46.8589 71.9791 45.8333 70.7188 45.8333ZM66.1562 4.58333H49.3235C46.2752 4.58333 44.7481 8.28581 46.9039 10.4514L51.5235 15.0921L41.0625 25.6022L30.6015 15.0935C28.8193 13.3031 25.9307 13.3031 24.1499 15.0935L14.3562 24.9319C13.4651 25.8271 13.4651 27.278 14.3562 28.1732L17.5813 31.413C18.4724 32.3082 19.9167 32.3082 20.8079 31.413L27.375 24.8145L37.836 35.3232C39.6182 37.1135 42.5068 37.1135 44.2876 35.3232L57.9751 21.5732L62.5946 26.2138C64.7504 28.3794 68.4361 26.8454 68.4361 23.7832V6.875C68.4375 5.60885 67.4166 4.58333 66.1562 4.58333Z" fill="#754E1A"/>
</svg>
