<svg width="88" height="73" viewBox="0 0 88 73" fill="none" xmlns="http://www.w3.org/2000/svg">
<path fill-rule="evenodd" clip-rule="evenodd" d="M18.8246 0.403134C18.4988 -0.154958 17.721 -0.13131 17.4487 0.459889C16.525 2.46523 16 4.92462 16 7.29888C16 15.4527 21.372 22.1119 29.0047 22.6511C32.9377 23.0579 35.9324 21.0762 37.5076 18.9999C39.987 21.0194 40.9301 23.1146 41.0031 23.2849C41.3337 24.0511 42.2379 24.4247 43.0352 24.1031C43.8276 23.7862 44.2068 22.9065 43.886 22.1356C42.7387 19.3972 37.5562 12.1089 25.3342 12.1089C24.9064 12.1089 24.5564 11.7683 24.5564 11.3521C24.5564 10.9359 24.9064 10.5954 25.3342 10.5954C31.6834 10.5954 36.1609 12.4305 39.2626 14.5919C39.2666 14.5542 39.2707 14.5165 39.2747 14.4789C39.3052 14.1958 39.3355 13.9146 39.3355 13.6223C39.3355 8.60897 35.1546 4.54152 30.0013 4.54152H26.1121C23.0298 4.54152 20.3317 2.95238 18.8246 0.403134ZM85.7234 0.717426C85.2956 -0.204844 84.0732 -0.241734 83.5614 0.628888C81.1931 4.60572 76.9531 7.08478 72.1096 7.08478H65.9979C57.8999 7.08478 51.3298 13.43 51.3298 21.2508C51.3298 21.7067 51.3775 22.1453 51.4254 22.587L51.4444 22.7634C56.3185 19.3916 63.3546 16.5288 73.3319 16.5288C74.0042 16.5288 74.5543 17.0601 74.5543 17.7093C74.5543 18.3586 74.0042 18.8898 73.3319 18.8898C54.1259 18.8898 45.9821 30.2596 44.1792 34.5315C43.675 35.7342 44.2708 37.1065 45.5161 37.6009C46.769 38.1026 48.19 37.5197 48.7095 36.3244C48.8241 36.0588 50.3061 32.7903 54.2023 29.6398C56.6776 32.8788 61.3836 35.9703 67.564 35.3358C79.5582 34.4946 88 24.1062 88 11.3862C88 7.68241 87.1749 3.84577 85.7234 0.717426ZM86.3605 45.7469C84.5578 44.1813 81.7469 44.2837 79.8525 45.7469L65.7366 56.5601C64.0104 57.8916 61.8563 58.6086 59.6259 58.6086H41.5533C40.2089 58.6086 39.109 57.5551 39.109 56.2674C39.109 54.9798 40.2089 53.9263 41.5533 53.9263H53.5151C55.9441 53.9263 58.2051 52.3314 58.6023 50.0341C59.1065 47.1077 56.7538 44.5617 53.7748 44.5617H29.3317C25.2069 44.5617 21.2197 45.9225 18.0115 48.41L10.9077 53.9263H2.44431C1.09994 53.9263 0 54.9798 0 56.2674V70.3143C0 71.6019 1.09994 72.6554 2.44431 72.6554H56.9524C59.1676 72.6554 61.3216 71.9385 63.0632 70.6069L86.1619 52.902C88.484 51.1315 88.6673 47.7369 86.3605 45.7469Z" fill="#754E1A"/>
</svg>
